<svg xmlns="http://www.w3.org/2000/svg" viewBox="0 0 64 64" role="img" aria-label="Tournament darts board">
  <!-- Same dartboard, but a gold rim + trophy badge mark it as the tournament board. -->
  <circle cx="32" cy="32" r="30" fill="#fbbf24"/>
  <circle cx="32" cy="32" r="28" fill="#1e293b"/>
  <circle cx="32" cy="32" r="27" fill="#22c55e"/>
  <circle cx="32" cy="32" r="24" fill="#1e293b"/>
  <circle cx="32" cy="32" r="15" fill="#ef4444"/>
  <circle cx="32" cy="32" r="12" fill="#273449"/>
  <g stroke="#0f172a" stroke-width="1.4" opacity="0.75">
    <line x1="32" y1="4" x2="32" y2="60"/>
    <line x1="4" y1="32" x2="60" y2="32"/>
    <line x1="12.2" y1="12.2" x2="51.8" y2="51.8"/>
    <line x1="51.8" y1="12.2" x2="12.2" y2="51.8"/>
  </g>
  <circle cx="32" cy="32" r="6" fill="#22c55e"/>
  <circle cx="32" cy="32" r="3.4" fill="#ef4444"/>
  <!-- Trophy badge, bottom-right -->
  <circle cx="50" cy="50" r="13" fill="#0f172a" stroke="#fbbf24" stroke-width="2"/>
  <g fill="none" stroke="#fbbf24" stroke-width="1.6" stroke-linecap="round" stroke-linejoin="round">
    <path d="M46 44 h8 v3 a4 4 0 0 1 -8 0 Z" fill="#fbbf24" stroke="none"/>
    <path d="M46 45 c-3 0 -3 4 0 4"/>
    <path d="M54 45 c3 0 3 4 0 4"/>
    <line x1="50" y1="51" x2="50" y2="54"/>
    <line x1="47" y1="55" x2="53" y2="55"/>
  </g>
</svg>
